<?xml version="1.0" encoding="utf-8"?>
<!-- Generator: Adobe Illustrator 25.4.1, SVG Export Plug-In . SVG Version: 6.00 Build 0)  -->
<svg version="1.1" id="Слой_1" xmlns="http://www.w3.org/2000/svg" xmlns:xlink="http://www.w3.org/1999/xlink" x="0px" y="0px"
	 viewBox="0 0 24 24" style="enable-background:new 0 0 24 24;" xml:space="preserve">
<style type="text/css">
	.st0{display:none;fill:#FFFFFF;}
	.st1{fill:#FFFFFF;}
</style>
<path class="st0" d="M12,12c2.2,0,4-1.8,4-4s-1.8-4-4-4S8,5.8,8,8S9.8,12,12,12z M12,14c-2.7,0-8,1.3-8,4v2h16v-2
	C20,15.3,14.7,14,12,14z"/>
<circle class="st0" cx="5.5" cy="12" r="3"/>
<circle cx="3.8" cy="12.8" r="2"/>
<circle class="st1" cx="3.8" cy="12.8" r="1.2"/>
<circle class="st0" cx="19.5" cy="12.8" r="1.2"/>
<circle cx="19.9" cy="12.8" r="2"/>
<rect x="5.3" y="12.5" width="13.5" height="0.7"/>
<circle class="st1" cx="19.9" cy="12.8" r="1.2"/>
</svg>
